<?xml version="1.0" encoding="UTF-8" standalone="no"?>
<svg
   version="1.1"
   id="Layer_1"
   x="0px"
   y="0px"
   width="256"
   viewBox="0 0 256 256"
   enable-background="new 0 0 640 640"
   xml:space="preserve"
   sodipodi:docname="rkp_emoji.svg"
   height="256"
   inkscape:version="1.4.3 (0d15f75, 2025-12-25)"
   xmlns:inkscape="http://www.inkscape.org/namespaces/inkscape"
   xmlns:sodipodi="http://sodipodi.sourceforge.net/DTD/sodipodi-0.dtd"
   xmlns="http://www.w3.org/2000/svg"
   xmlns:svg="http://www.w3.org/2000/svg"><defs
   id="defs5" /><sodipodi:namedview
   id="namedview5"
   pagecolor="#5b5b5b"
   bordercolor="#000000"
   borderopacity="0.23529412"
   inkscape:showpageshadow="2"
   inkscape:pageopacity="0.0"
   inkscape:pagecheckerboard="0"
   inkscape:deskcolor="#d1d1d1"
   inkscape:zoom="1.2234375"
   inkscape:cx="-160.61303"
   inkscape:cy="105.8493"
   inkscape:window-width="1920"
   inkscape:window-height="1001"
   inkscape:window-x="-9"
   inkscape:window-y="-9"
   inkscape:window-maximized="1"
   inkscape:current-layer="Layer_1" />

<path
   fill="#ffffff"
   opacity="1"
   stroke="none"
   d="m 97.444657,13.95512 c 3.380823,-3.332598 6.128403,-7.7691481 10.046343,-9.4082527 3.84161,-1.6071905 8.87464,-0.3206449 13.38349,-0.3888052 8.25715,-0.1247551 16.51735,-0.2099478 24.76743,-0.5356119 2.44588,-0.096558 4.04102,1.0136033 5.56471,2.5024059 8.89959,8.6959499 17.75604,17.4360669 26.65626,26.1313669 3.65352,3.569384 7.3542,7.091674 11.08793,10.577026 1.21525,1.134386 1.54361,1.924332 0.12276,3.276532 -9.04344,8.607518 -18.01287,17.293073 -26.97311,25.987483 -1.19222,1.156805 -2.01231,0.632762 -2.91532,-0.278603 -9.51304,-9.600828 -19.00923,-19.218711 -28.60768,-28.733437 -0.47592,-0.471756 -1.85273,-0.06214 -2.80604,-4.8e-4 -0.18005,0.0114 -0.34015,0.319899 -0.51049,0.490273 -27.961497,27.962794 -55.923186,55.925428 -83.88363,83.889283 -0.226579,0.22673 -0.436509,0.46988 -1.477776,1.55217 0.800444,0.39665 1.773804,0.61907 2.375484,1.21605 9.54767,9.47308 19.017004,19.02531 28.591381,28.47109 1.453219,1.43374 1.4449,2.2531 -0.0184,3.62995 -5.183695,4.8773 -10.272983,9.85584 -15.357335,14.83754 -3.728506,3.65329 -7.438925,7.32762 -11.060425,11.08605 -1.188369,1.23329 -1.917499,1.17292 -3.099791,-0.0146 C 30.780266,175.6232 18.171808,163.06183 5.6171661,150.44689 5.0685675,149.89564 4.5945485,148.98859 4.5754616,148.23485 4.3459613,139.17521 4.2359023,130.11263 4.0349836,121.05213 3.9518246,117.30409 3.6145085,113.55862 3.6331721,109.8132 c 0.00537,-1.10727 0.5674494,-2.45727 1.3283173,-3.27227 3.0877472,-3.30747 6.3503436,-6.45181 9.5516066,-9.653162 27.603162,-27.603948 55.207006,-55.207153 82.93146,-82.93139 z"
   id="path2"
   style="display:inline;stroke-width:0.483294" />
<path
   fill="#ffffff"
   opacity="1"
   stroke="none"
   d="M 106.69322,251.07473 C 93.888118,238.44966 81.252115,225.90927 68.520173,213.46705 c -1.686309,-1.64793 -1.954869,-2.59245 -0.08824,-4.33272 5.820722,-5.427 11.446311,-11.06283 17.17313,-16.59124 2.874463,-2.77491 5.891395,-5.40769 8.674478,-8.26954 1.522865,-1.56593 2.539661,-1.62502 4.108486,-0.0397 10.080403,10.18716 20.242293,20.29371 30.589083,30.63839 0.78367,-0.62245 1.66713,-1.19395 2.395,-1.92116 27.51153,-27.48787 54.99715,-55.00169 82.53676,-82.46141 1.64788,-1.64313 1.60683,-2.64827 -0.0347,-4.26865 -9.8004,-9.66998 -19.47041,-19.47206 -29.2685,-29.144416 -1.45957,-1.44083 -1.39409,-2.231428 0.0229,-3.63076 9.05218,-8.935368 18.01542,-17.960749 27.14601,-27.09459 0.55486,0.494446 1.09588,0.930283 1.58435,1.418624 12.58404,12.580455 25.17184,25.157198 37.71595,37.777342 0.65618,0.66016 1.3089,1.68845 1.32939,2.56027 0.24934,10.58745 0.38225,21.17764 0.53717,31.76724 0.0257,1.61004 -0.20067,3.25278 0.0446,4.82436 0.49395,3.14536 -0.95249,5.22164 -3.07255,7.31132 -10.09225,9.94786 -20.04744,20.0346 -30.10769,30.01524 -6.36445,6.31417 -12.85146,12.50469 -19.23894,18.79589 -5.0298,4.9539 -9.99143,9.97706 -14.98353,14.96926 -5.44869,5.44876 -10.89666,10.89824 -16.34673,16.34556 -6.19652,6.19346 -12.36169,12.41907 -18.63443,18.53434 -0.79441,0.77443 -2.15358,1.35676 -3.25715,1.36691 -10.86918,0.10013 -21.73968,0.0725 -32.60974,0.0521 -2.66248,-0.007 -5.45123,0.98352 -8.04357,-1.01504 z"
   id="path3"
   style="display:inline;stroke-width:0.483294" />
<path
   fill="#ffffff"
   opacity="1"
   stroke="none"
   d="m 152.63678,138.52397 c 4.00054,2.3e-4 7.77899,2.3e-4 11.86039,2.3e-4 0,4.30033 0.0765,8.53502 -0.0861,12.76053 -0.0229,0.60201 -1.19736,1.64874 -1.84933,1.65697 -3.74787,0.0472 -7.49842,-0.21557 -11.2491,-0.24562 -1.46188,-0.0114 -2.92642,0.30807 -4.63107,0.50473 -0.96631,4.39526 -1.9853,8.92759 -2.95265,13.47089 -0.53549,2.51501 -0.91702,5.06514 -1.53516,7.558 -0.11054,0.44554 -1.03339,0.96894 -1.59048,0.97988 -4.18595,0.0822 -8.37436,0.0598 -12.56175,0.0347 -1.14238,-0.007 -1.79305,-0.0286 -1.37534,-1.78235 1.60131,-6.7262 2.86649,-13.53243 4.28384,-20.43906 -2.94865,0 -5.99866,8e-5 -9.04864,-3e-5 -1.43829,-7e-5 -2.88284,0.083 -4.3131,-0.023 -1.41161,-0.10598 -1.68943,0.75166 -1.90289,1.82098 -1.28165,6.42092 -2.54585,12.84587 -3.93038,19.24467 -0.10696,0.49404 -1.08674,1.12631 -1.672,1.13802 -4.65709,0.0933 -9.31689,0.0521 -14.511331,0.0521 1.532813,-7.50989 3.018674,-14.78964 4.537571,-22.23133 -3.507148,0 -7.040748,-0.0752 -10.568748,0.0324 -1.734736,0.0529 -2.46106,-0.40726 -2.403477,-2.28385 0.122915,-4.00519 0.03777,-8.01677 0.03777,-12.24712 4.479088,0 8.803743,-0.0747 13.124035,0.0309 2.25914,0.055 3.67971,-0.48711 4.14176,-3.00385 0.68774,-3.74592 1.70127,-7.43124 2.51905,-11.15486 0.14783,-0.67292 0.0208,-1.40609 0.0208,-2.29373 -4.69076,0 -9.245456,0 -14.005817,0 0,-4.42463 0.02572,-8.66898 -0.01302,-12.91274 -0.01465,-1.54002 0.913253,-1.61097 2.066184,-1.60578 4.989953,0.0223 9.980083,0.01 15.184333,0.01 1.1813,-5.12246 2.37524,-10.241624 3.53875,-15.367687 0.67188,-2.960065 1.22145,-5.950509 1.9926,-8.883516 0.1852,-0.704802 1.01805,-1.749828 1.57786,-1.765766 4.89542,-0.139359 9.79651,-0.08059 14.92931,-0.08059 -1.95411,8.713371 -3.85803,17.202874 -5.81568,25.932109 4.94262,0 9.48694,0 14.34327,0 1.27824,-5.72544 2.6039,-11.615274 3.904,-17.510756 0.52014,-2.358739 0.88633,-4.757512 1.54242,-7.07586 0.16232,-0.573259 1.17356,-1.271614 1.80958,-1.286885 4.58099,-0.110054 9.16585,-0.05893 14.36384,-0.05893 -1.96618,8.724149 -3.88599,17.2425 -5.88175,26.097851 3.46988,0 6.66174,0.0923 9.84474,-0.0353 1.84387,-0.0741 2.60811,0.39823 2.53374,2.40462 -0.14603,3.93458 -0.0427,7.87838 -0.0427,12.12961 -3.65093,0 -7.23846,0 -10.82596,0 -4.50256,0 -4.40213,0.0173 -5.15318,4.45369 -0.63537,3.7534 -1.53894,7.46142 -2.35301,11.32831 0.60129,0.20612 1.24836,0.42771 2.11756,0.64974 m -32.59916,-2.24603 c -0.6512,1.49307 -0.47841,2.36558 1.46768,2.26845 2.0022,-0.1 4.01359,4.9e-4 6.02037,-0.0286 2.15548,-0.0309 4.84995,0.6463 6.30559,-0.39224 1.31692,-0.93958 1.28041,-3.77549 1.8446,-5.77415 0.02,-0.0739 0.10614,-0.13089 0.1234,-0.20438 0.7386,-3.12527 1.47287,-6.25158 2.23452,-9.49217 -5.19585,0 -10.07353,0 -14.96001,0 -1.02255,4.45259 -2.02819,8.83144 -3.03624,13.62272 z"
   id="path4"
   style="display:inline;stroke-width:0.483294" />

</svg>
